<svg id="Group_6" data-name="Group 6" xmlns="http://www.w3.org/2000/svg" xmlns:xlink="http://www.w3.org/1999/xlink" width="32.488" height="31.052" viewBox="0 0 32.488 31.052">
  <defs>
    <clipPath id="clip-path">
      <rect id="Rectangle_37" data-name="Rectangle 37" width="32.488" height="31.052" fill="none"/>
    </clipPath>
  </defs>
  <g id="Group_5" data-name="Group 5" transform="translate(0 0)" clip-path="url(#clip-path)">
    <path id="Path_3" data-name="Path 3" d="M18.194,13.139V13.07c-.016.022-.03.048-.045.069ZM7.373,31.052H.408V10.1H7.373ZM3.894,7.245H3.851A3.632,3.632,0,1,1,3.94,0a3.634,3.634,0,1,1-.046,7.245M32.488,31.052H25.525V19.844c0-2.816-1.009-4.734-3.53-4.734a3.81,3.81,0,0,0-3.574,2.546,4.816,4.816,0,0,0-.227,1.7v11.7H11.232s.09-18.986,0-20.951h6.962V13.07A6.909,6.909,0,0,1,24.47,9.607c4.582,0,8.018,3,8.018,9.432Z" transform="translate(0 0)" fill="#fff"/>
  </g>
</svg>
