<svg xmlns="http://www.w3.org/2000/svg" width="31.115" height="31.113" viewBox="0 0 31.115 31.113">
  <path id="Path_125" data-name="Path 125" d="M714.6,227.475H702.535a9.536,9.536,0,0,1-9.526-9.525V205.888a9.537,9.537,0,0,1,9.526-9.526H714.6a9.537,9.537,0,0,1,9.526,9.526V217.95A9.536,9.536,0,0,1,714.6,227.475Zm-12.062-28.783a7.2,7.2,0,0,0-7.2,7.2V217.95a7.2,7.2,0,0,0,7.2,7.195H714.6a7.2,7.2,0,0,0,7.2-7.195V205.888a7.2,7.2,0,0,0-7.2-7.2Zm6.03,21.1a7.871,7.871,0,1,1,7.871-7.871A7.879,7.879,0,0,1,708.566,219.789Zm0-13.355a5.485,5.485,0,1,0,5.485,5.485A5.491,5.491,0,0,0,708.566,206.434Zm8.727-5.29a2.049,2.049,0,1,0,2.049,2.048A2.049,2.049,0,0,0,717.293,201.144Z" transform="translate(-693.009 -196.362)" fill="#fff"/>
</svg>
